<mxfile host="Electron" agent="Mozilla/5.0 (Windows NT 10.0; Win64; x64) AppleWebKit/537.36 (KHTML, like Gecko) draw.io/26.0.4 Chrome/128.0.6613.186 Electron/32.2.5 Safari/537.36" version="26.0.4">
  <diagram name="Page-1" id="uST46z_KFBdFDnhc6IbV">
    <mxGraphModel dx="1050" dy="717" grid="1" gridSize="10" guides="1" tooltips="1" connect="1" arrows="1" fold="1" page="1" pageScale="1" pageWidth="827" pageHeight="1169" math="0" shadow="0">
      <root>
        <mxCell id="0" />
        <mxCell id="1" parent="0" />
        <mxCell id="DAfmsctaAxgYxg2B-3OD-24" style="edgeStyle=orthogonalEdgeStyle;rounded=0;orthogonalLoop=1;jettySize=auto;html=1;exitX=0.5;exitY=0.5;exitDx=0;exitDy=0;exitPerimeter=0;" edge="1" parent="1" source="DAfmsctaAxgYxg2B-3OD-2" target="DAfmsctaAxgYxg2B-3OD-12">
          <mxGeometry relative="1" as="geometry" />
        </mxCell>
        <mxCell id="DAfmsctaAxgYxg2B-3OD-2" value="Administrateur" style="shape=umlActor;verticalLabelPosition=bottom;verticalAlign=top;html=1;outlineConnect=0;" vertex="1" parent="1">
          <mxGeometry x="30" y="300" width="30" height="60" as="geometry" />
        </mxCell>
        <mxCell id="DAfmsctaAxgYxg2B-3OD-3" value="Vétérinaire" style="shape=umlActor;verticalLabelPosition=bottom;verticalAlign=top;html=1;outlineConnect=0;" vertex="1" parent="1">
          <mxGeometry x="399" y="620" width="30" height="60" as="geometry" />
        </mxCell>
        <mxCell id="DAfmsctaAxgYxg2B-3OD-7" value="Employé" style="shape=umlActor;verticalLabelPosition=bottom;verticalAlign=top;html=1;outlineConnect=0;" vertex="1" parent="1">
          <mxGeometry x="760" y="300" width="30" height="55" as="geometry" />
        </mxCell>
        <mxCell id="DAfmsctaAxgYxg2B-3OD-15" value="Zoo-Arcadia" style="shape=folder;fontStyle=1;spacingTop=10;tabWidth=40;tabHeight=14;tabPosition=left;html=1;whiteSpace=wrap;align=center;verticalAlign=top;fontSize=16;" vertex="1" parent="1">
          <mxGeometry x="110" y="110" width="590" height="480" as="geometry" />
        </mxCell>
        <mxCell id="DAfmsctaAxgYxg2B-3OD-9" value="Gestion des comptes" style="shape=folder;fontStyle=1;spacingTop=10;tabWidth=40;tabHeight=14;tabPosition=left;html=1;whiteSpace=wrap;horizontal=1;" vertex="1" parent="1">
          <mxGeometry x="200" y="150" width="90" height="60" as="geometry" />
        </mxCell>
        <mxCell id="DAfmsctaAxgYxg2B-3OD-10" value="Gestion des animaux" style="shape=folder;fontStyle=1;spacingTop=10;tabWidth=40;tabHeight=14;tabPosition=left;html=1;whiteSpace=wrap;" vertex="1" parent="1">
          <mxGeometry x="200" y="230" width="90" height="60" as="geometry" />
        </mxCell>
        <mxCell id="DAfmsctaAxgYxg2B-3OD-11" value="Gestion des habitats" style="shape=folder;fontStyle=1;spacingTop=10;tabWidth=40;tabHeight=14;tabPosition=left;html=1;whiteSpace=wrap;" vertex="1" parent="1">
          <mxGeometry x="200" y="310" width="90" height="60" as="geometry" />
        </mxCell>
        <mxCell id="DAfmsctaAxgYxg2B-3OD-12" value="Gestion des services" style="shape=folder;fontStyle=1;spacingTop=10;tabWidth=40;tabHeight=14;tabPosition=left;html=1;whiteSpace=wrap;" vertex="1" parent="1">
          <mxGeometry x="552.5" y="290" width="95" height="60" as="geometry" />
        </mxCell>
        <mxCell id="DAfmsctaAxgYxg2B-3OD-13" value="Gestion des horaires" style="shape=folder;fontStyle=1;spacingTop=10;tabWidth=40;tabHeight=14;tabPosition=left;html=1;whiteSpace=wrap;" vertex="1" parent="1">
          <mxGeometry x="195" y="400" width="90" height="60" as="geometry" />
        </mxCell>
        <mxCell id="DAfmsctaAxgYxg2B-3OD-14" value="Gestion des comptes rendus" style="shape=folder;fontStyle=1;spacingTop=10;tabWidth=40;tabHeight=14;tabPosition=left;html=1;whiteSpace=wrap;" vertex="1" parent="1">
          <mxGeometry x="200" y="505" width="100" height="65" as="geometry" />
        </mxCell>
        <mxCell id="DAfmsctaAxgYxg2B-3OD-16" style="edgeStyle=orthogonalEdgeStyle;rounded=0;orthogonalLoop=1;jettySize=auto;html=1;exitX=0.5;exitY=0.5;exitDx=0;exitDy=0;exitPerimeter=0;entryX=0;entryY=0;entryDx=0;entryDy=25.5;entryPerimeter=0;" edge="1" parent="1" source="DAfmsctaAxgYxg2B-3OD-2" target="DAfmsctaAxgYxg2B-3OD-9">
          <mxGeometry relative="1" as="geometry" />
        </mxCell>
        <mxCell id="DAfmsctaAxgYxg2B-3OD-17" value="Gérer les avis" style="shape=folder;fontStyle=1;spacingTop=10;tabWidth=40;tabHeight=14;tabPosition=left;html=1;whiteSpace=wrap;" vertex="1" parent="1">
          <mxGeometry x="552.5" y="170" width="100" height="60" as="geometry" />
        </mxCell>
        <mxCell id="DAfmsctaAxgYxg2B-3OD-19" style="edgeStyle=orthogonalEdgeStyle;rounded=0;orthogonalLoop=1;jettySize=auto;html=1;exitX=0.5;exitY=0.5;exitDx=0;exitDy=0;exitPerimeter=0;entryX=0;entryY=0;entryDx=100;entryDy=37;entryPerimeter=0;" edge="1" parent="1" source="DAfmsctaAxgYxg2B-3OD-7" target="DAfmsctaAxgYxg2B-3OD-17">
          <mxGeometry relative="1" as="geometry" />
        </mxCell>
        <mxCell id="DAfmsctaAxgYxg2B-3OD-20" style="edgeStyle=orthogonalEdgeStyle;rounded=0;orthogonalLoop=1;jettySize=auto;html=1;exitX=0.5;exitY=0.5;exitDx=0;exitDy=0;exitPerimeter=0;entryX=0.5;entryY=1;entryDx=0;entryDy=0;entryPerimeter=0;" edge="1" parent="1" source="DAfmsctaAxgYxg2B-3OD-3" target="DAfmsctaAxgYxg2B-3OD-14">
          <mxGeometry relative="1" as="geometry" />
        </mxCell>
        <mxCell id="DAfmsctaAxgYxg2B-3OD-21" style="edgeStyle=orthogonalEdgeStyle;rounded=0;orthogonalLoop=1;jettySize=auto;html=1;exitX=0.5;exitY=0.5;exitDx=0;exitDy=0;exitPerimeter=0;entryX=0;entryY=0;entryDx=0;entryDy=37;entryPerimeter=0;" edge="1" parent="1" source="DAfmsctaAxgYxg2B-3OD-2" target="DAfmsctaAxgYxg2B-3OD-10">
          <mxGeometry relative="1" as="geometry" />
        </mxCell>
        <mxCell id="DAfmsctaAxgYxg2B-3OD-22" style="edgeStyle=orthogonalEdgeStyle;rounded=0;orthogonalLoop=1;jettySize=auto;html=1;exitX=0.5;exitY=0.5;exitDx=0;exitDy=0;exitPerimeter=0;entryX=0;entryY=0;entryDx=0;entryDy=25.5;entryPerimeter=0;" edge="1" parent="1" source="DAfmsctaAxgYxg2B-3OD-2" target="DAfmsctaAxgYxg2B-3OD-11">
          <mxGeometry relative="1" as="geometry" />
        </mxCell>
        <mxCell id="DAfmsctaAxgYxg2B-3OD-23" style="edgeStyle=orthogonalEdgeStyle;rounded=0;orthogonalLoop=1;jettySize=auto;html=1;exitX=0.5;exitY=0.5;exitDx=0;exitDy=0;exitPerimeter=0;entryX=0;entryY=0;entryDx=0;entryDy=25.5;entryPerimeter=0;" edge="1" parent="1" source="DAfmsctaAxgYxg2B-3OD-2" target="DAfmsctaAxgYxg2B-3OD-13">
          <mxGeometry relative="1" as="geometry" />
        </mxCell>
        <mxCell id="DAfmsctaAxgYxg2B-3OD-25" style="edgeStyle=orthogonalEdgeStyle;rounded=0;orthogonalLoop=1;jettySize=auto;html=1;exitX=0.5;exitY=0.5;exitDx=0;exitDy=0;exitPerimeter=0;entryX=1;entryY=0.617;entryDx=0;entryDy=0;entryPerimeter=0;" edge="1" parent="1" source="DAfmsctaAxgYxg2B-3OD-7" target="DAfmsctaAxgYxg2B-3OD-12">
          <mxGeometry relative="1" as="geometry" />
        </mxCell>
        <mxCell id="DAfmsctaAxgYxg2B-3OD-27" value="Gestion des messages" style="shape=folder;fontStyle=1;spacingTop=10;tabWidth=40;tabHeight=14;tabPosition=left;html=1;whiteSpace=wrap;" vertex="1" parent="1">
          <mxGeometry x="552.5" y="427.5" width="100" height="65" as="geometry" />
        </mxCell>
        <mxCell id="DAfmsctaAxgYxg2B-3OD-30" style="edgeStyle=orthogonalEdgeStyle;rounded=0;orthogonalLoop=1;jettySize=auto;html=1;exitX=0.5;exitY=0.5;exitDx=0;exitDy=0;exitPerimeter=0;entryX=0;entryY=0;entryDx=100;entryDy=39.5;entryPerimeter=0;" edge="1" parent="1" source="DAfmsctaAxgYxg2B-3OD-7" target="DAfmsctaAxgYxg2B-3OD-27">
          <mxGeometry relative="1" as="geometry" />
        </mxCell>
        <mxCell id="DAfmsctaAxgYxg2B-3OD-31" style="edgeStyle=orthogonalEdgeStyle;rounded=0;orthogonalLoop=1;jettySize=auto;html=1;exitX=0.5;exitY=0.5;exitDx=0;exitDy=0;exitPerimeter=0;entryX=0;entryY=0;entryDx=0;entryDy=39.5;entryPerimeter=0;" edge="1" parent="1" source="DAfmsctaAxgYxg2B-3OD-2" target="DAfmsctaAxgYxg2B-3OD-14">
          <mxGeometry relative="1" as="geometry" />
        </mxCell>
        <mxCell id="DAfmsctaAxgYxg2B-3OD-32" value="Gestion commentaires habitats" style="shape=folder;fontStyle=1;spacingTop=10;tabWidth=40;tabHeight=14;tabPosition=left;html=1;whiteSpace=wrap;" vertex="1" parent="1">
          <mxGeometry x="364" y="505" width="100" height="65" as="geometry" />
        </mxCell>
        <mxCell id="DAfmsctaAxgYxg2B-3OD-33" style="edgeStyle=orthogonalEdgeStyle;rounded=0;orthogonalLoop=1;jettySize=auto;html=1;exitX=0.5;exitY=0.5;exitDx=0;exitDy=0;exitPerimeter=0;entryX=0.5;entryY=1;entryDx=0;entryDy=0;entryPerimeter=0;" edge="1" parent="1" source="DAfmsctaAxgYxg2B-3OD-3" target="DAfmsctaAxgYxg2B-3OD-32">
          <mxGeometry relative="1" as="geometry" />
        </mxCell>
      </root>
    </mxGraphModel>
  </diagram>
</mxfile>
